<svg xmlns="http://www.w3.org/2000/svg" width="256" height="256" viewBox="0 0 24 24" fill="none" xmlns:bx="https://boxy-svg.com"><metadata><rdf:RDF xmlns:rdf="http://www.w3.org/1999/02/22-rdf-syntax-ns#" xmlns:dc="http://purl.org/dc/elements/1.1/"><rdf:Description><dc:creator>RealFaviconGenerator</dc:creator><dc:source>https://realfavicongenerator.net</dc:source></rdf:Description></rdf:RDF></metadata><defs>
    <bx:export>
      <bx:file format="html" path="Unbetitelt.html"></bx:file>
    </bx:export>
  </defs><ellipse style="stroke-width: 1px; fill: rgb(214, 168, 86); stroke: rgb(200, 149, 66);" cx="10.984" cy="11.191" rx="8.166" ry="8.166"></ellipse><g transform="matrix(0.92574, 0, 0, 0.92574, 2.546767, 1.967856)" style="">
    <path d="M 2.875 8.566 L 11.257 8.566" style="stroke: #CED4DA; stroke-width: 1.6px;"></path>
    <path d="M 2.875 11.36 L 9.161 11.36" style="stroke: #CED4DA; stroke-width: 1.6px; transform-box: fill-box; transform-origin: 50% 50%;"></path>
    <path d="M 13.352 5.772 C 12.358 4.869 11.063 4.371 9.72 4.375 C 6.673 4.413 4.233 6.915 4.272 9.963 C 4.272 13.036 6.717 15.551 9.72 15.551 C 11.117 15.551 12.375 14.992 13.352 14.154" style="stroke: #CED4DA; stroke-width: 1.6px;"></path>
  </g><path d="M 12.565 12.742 C 12.454 12.481 12.667 12.198 12.949 12.234 C 12.982 12.237 13.016 12.245 13.047 12.259 L 21.159 15.577 C 21.421 15.685 21.469 16.036 21.244 16.21 C 21.202 16.242 21.155 16.265 21.105 16.277 L 17.897 17.046 C 17.626 17.109 17.416 17.32 17.351 17.592 L 16.583 20.797 C 16.519 21.075 16.178 21.176 15.974 20.983 C 15.935 20.945 15.904 20.901 15.882 20.854 L 12.565 12.742 Z" style="stroke-width: 1.199; stroke: rgb(0, 86, 210); fill: rgb(0, 86, 210);"></path><style>@media (prefers-color-scheme: light) { :root { filter: none; } }
@media (prefers-color-scheme: dark) { :root { filter: none; } }
</style></svg>