<svg xmlns="http://www.w3.org/2000/svg" version="1.1" xmlns:xlink="http://www.w3.org/1999/xlink" xmlns:svgjs="http://svgjs.dev/svgjs" width="1000" height="1000"><style>
    #light-icon {
      display: inline;
    }
    #dark-icon {
      display: none;
    }

    @media (prefers-color-scheme: dark) {
      #light-icon {
        display: none;
      }
      #dark-icon {
        display: inline;
      }
    }
  </style><g id="light-icon"><svg xmlns="http://www.w3.org/2000/svg" version="1.1" xmlns:xlink="http://www.w3.org/1999/xlink" xmlns:svgjs="http://svgjs.dev/svgjs" width="1000" height="1000"><g clip-path="url(#SvgjsClipPath1062)"><rect width="1000" height="1000" fill="#003399"></rect><g transform="matrix(0.6481481481481481,0,0,0.6481481481481481,150,150)"><svg xmlns="http://www.w3.org/2000/svg" version="1.1" xmlns:xlink="http://www.w3.org/1999/xlink" xmlns:svgjs="http://svgjs.dev/svgjs" width="1080" height="1080"><svg xmlns="http://www.w3.org/2000/svg" xmlns:xlink="http://www.w3.org/1999/xlink" version="1.1" width="1080" height="1080" viewBox="0 0 1080 1080" xml:space="preserve">
<desc>Created with Fabric.js 5.2.4</desc>
<defs>
<clipPath id="SvgjsClipPath1062"><rect width="1000" height="1000" x="0" y="0" rx="350" ry="350"></rect></clipPath></defs>
<rect x="0" y="0" width="100%" height="100%" fill="transparent"></rect>
<g transform="matrix(1 0 0 1 540 540)" id="0d9e1015-e84a-4c22-bf44-b4e58adb67a0">
<rect style="stroke: none; stroke-width: 1; stroke-dasharray: none; stroke-linecap: butt; stroke-dashoffset: 0; stroke-linejoin: miter; stroke-miterlimit: 4; fill: rgb(0,51,153); fill-rule: nonzero; opacity: 1; visibility: hidden;" vector-effect="non-scaling-stroke" x="-540" y="-540" rx="0" ry="0" width="1080" height="1080"></rect>
</g>
<g transform="matrix(1 0 0 1 540 540)" id="68e26ec7-20f0-42e8-ae5e-a501e5e39986">
</g>
<g transform="matrix(NaN NaN NaN NaN 0 0)">
<g style="">
</g>
</g>
<g transform="matrix(NaN NaN NaN NaN 0 0)">
<g style="">
</g>
</g>
<g transform="matrix(NaN NaN NaN NaN 0 0)">
<g style="">
</g>
</g>
<g transform="matrix(NaN NaN NaN NaN 0 0)">
<g style="">
</g>
</g>
<g transform="matrix(0.13 0 0 -0.13 438.72 510.71)">
<path style="stroke: none; stroke-width: 1; stroke-dasharray: none; stroke-linecap: butt; stroke-dashoffset: 0; stroke-linejoin: miter; stroke-miterlimit: 4; fill: rgb(255,204,0); fill-rule: nonzero; opacity: 1;" vector-effect="non-scaling-stroke" transform=" translate(-4290.6, -6519.01)" d="M 4000 8695 C 3589 8637 3185 8458 2869 8192 C 2447 7837 2182 7350 2109 6796 C 2093 6672 2102 6273 2124 6155 C 2210 5688 2394 5324 2709 4997 C 3068 4625 3547 4395 4075 4339 C 4226 4323 4503 4333 4650 4360 C 5247 4469 5742 4785 6072 5271 C 6175 5421 6171 5411 6154 5526 C 6146 5580 6135 5641 6130 5660 C 6124 5679 6120 5708 6120 5725 C 6120 5763 6106 5748 6086 5688 C 6049 5576 5919 5349 5832 5245 C 5707 5094 5540 4941 5395 4845 C 5011 4590 4494 4467 4043 4525 C 3354 4614 2774 5027 2475 5645 C 2269 6070 2222 6580 2345 7053 C 2506 7672 2988 8192 3608 8416 C 4030 8569 4550 8568 4982 8414 C 5379 8272 5756 7969 5985 7607 C 6159 7332 6252 7057 6291 6705 C 6297 6645 6309 6581 6317 6564 C 6342 6508 6414 6493 6455 6535 C 6486 6565 6488 6623 6464 6792 C 6380 7407 6085 7914 5601 8278 C 5319 8491 5008 8624 4645 8686 C 4515 8709 4137 8714 4000 8695 z" stroke-linecap="round"></path>
</g>
<g transform="matrix(0.13 0 0 -0.13 437.3 293.19)">
<path style="stroke: none; stroke-width: 1; stroke-dasharray: none; stroke-linecap: butt; stroke-dashoffset: 0; stroke-linejoin: miter; stroke-miterlimit: 4; fill: rgb(255,204,0); fill-rule: nonzero; opacity: 1;" vector-effect="non-scaling-stroke" transform=" translate(-4280, -8150.42)" d="M 4264 8344 C 4261 8333 4249 8300 4237 8270 L 4215 8215 L 4137 8212 C 4095 8210 4060 8206 4060 8201 C 4060 8197 4086 8173 4119 8148 L 4178 8102 L 4159 8024 C 4149 7981 4142 7944 4145 7942 C 4147 7940 4178 7956 4214 7979 C 4250 8001 4282 8020 4284 8020 C 4287 8020 4318 8002 4352 7979 C 4386 7957 4416 7943 4418 7949 C 4420 7954 4414 7985 4406 8018 C 4397 8051 4390 8085 4390 8093 C 4390 8101 4415 8127 4445 8150 C 4475 8173 4500 8196 4500 8201 C 4500 8205 4465 8210 4423 8212 L 4346 8215 L 4319 8284 C 4293 8355 4273 8377 4264 8344 z" stroke-linecap="round"></path>
</g>
<g transform="matrix(0.13 0 0 -0.13 328.21 320.18)">
<path style="stroke: none; stroke-width: 1; stroke-dasharray: none; stroke-linecap: butt; stroke-dashoffset: 0; stroke-linejoin: miter; stroke-miterlimit: 4; fill: rgb(255,204,0); fill-rule: nonzero; opacity: 1;" vector-effect="non-scaling-stroke" transform=" translate(-3461.83, -7948)" d="M 3452 8139 C 3447 8126 3435 8091 3425 8063 L 3406 8010 L 3323 8010 C 3274 8010 3240 8006 3240 8000 C 3240 7994 3267 7969 3300 7943 C 3333 7918 3360 7893 3360 7888 C 3360 7883 3353 7850 3344 7814 C 3335 7778 3330 7747 3334 7743 C 3337 7740 3366 7753 3399 7773 C 3431 7794 3461 7810 3464 7810 C 3467 7810 3494 7794 3524 7775 C 3606 7722 3610 7725 3585 7820 C 3577 7850 3570 7880 3570 7886 C 3570 7892 3597 7919 3631 7945 C 3664 7971 3688 7996 3683 8001 C 3679 8005 3641 8010 3600 8012 L 3526 8015 L 3503 8080 C 3475 8159 3464 8171 3452 8139 z" stroke-linecap="round"></path>
</g>
<g transform="matrix(0.13 0 0 -0.13 547.3 319.8)">
<path style="stroke: none; stroke-width: 1; stroke-dasharray: none; stroke-linecap: butt; stroke-dashoffset: 0; stroke-linejoin: miter; stroke-miterlimit: 4; fill: rgb(255,204,0); fill-rule: nonzero; opacity: 1;" vector-effect="non-scaling-stroke" transform=" translate(-5105, -7950.84)" d="M 5083 8143 C 5079 8133 5067 8100 5055 8070 L 5034 8015 L 4957 8012 C 4915 8010 4880 8006 4880 8002 C 4880 7995 4958 7931 4994 7908 C 5001 7903 4998 7878 4985 7826 C 4975 7784 4969 7747 4973 7744 C 4976 7741 5006 7757 5039 7779 L 5099 7820 L 5166 7780 C 5202 7757 5235 7741 5238 7745 C 5241 7748 5236 7782 5226 7820 C 5205 7900 5204 7898 5281 7957 C 5308 7977 5330 7998 5330 8002 C 5330 8006 5294 8010 5251 8010 C 5202 8010 5168 8014 5164 8021 C 5160 8028 5147 8060 5135 8093 C 5112 8157 5095 8174 5083 8143 z" stroke-linecap="round"></path>
</g>
<g transform="matrix(0.13 0 0 -0.13 626.22 392.71)">
<path style="stroke: none; stroke-width: 1; stroke-dasharray: none; stroke-linecap: butt; stroke-dashoffset: 0; stroke-linejoin: miter; stroke-miterlimit: 4; fill: rgb(255,204,0); fill-rule: nonzero; opacity: 1;" vector-effect="non-scaling-stroke" transform=" translate(-5696.88, -7404.05)" d="M 5691 7599 C 5685 7586 5672 7553 5661 7525 L 5642 7475 L 5567 7470 C 5525 7467 5488 7461 5484 7458 C 5481 7454 5506 7430 5539 7404 C 5573 7378 5600 7354 5600 7351 C 5599 7348 5593 7318 5585 7285 C 5561 7185 5565 7180 5641 7235 C 5668 7254 5693 7270 5696 7270 C 5699 7270 5731 7252 5767 7230 C 5804 7208 5835 7191 5836 7193 C 5838 7195 5831 7232 5821 7275 L 5802 7354 L 5848 7397 C 5874 7420 5898 7440 5903 7440 C 5907 7440 5910 7447 5910 7455 C 5910 7466 5893 7470 5839 7472 L 5768 7475 L 5743 7540 C 5713 7620 5704 7630 5691 7599 z" stroke-linecap="round"></path>
</g>
<g transform="matrix(0.13 0 0 -0.13 250.02 393.18)">
<path style="stroke: none; stroke-width: 1; stroke-dasharray: none; stroke-linecap: butt; stroke-dashoffset: 0; stroke-linejoin: miter; stroke-miterlimit: 4; fill: rgb(255,204,0); fill-rule: nonzero; opacity: 1;" vector-effect="non-scaling-stroke" transform=" translate(-2875.4, -7400.46)" d="M 2834 7540 L 2807 7470 L 2746 7469 C 2646 7468 2640 7461 2697 7415 C 2769 7357 2769 7359 2753 7285 C 2746 7249 2739 7216 2737 7212 C 2731 7194 2757 7201 2812 7234 L 2872 7269 L 2938 7230 C 2974 7208 3005 7192 3007 7194 C 3009 7195 3003 7232 2994 7276 L 2978 7355 L 3034 7405 C 3065 7433 3090 7459 3090 7462 C 3090 7466 3053 7470 3008 7472 L 2927 7475 L 2905 7539 C 2893 7575 2879 7605 2873 7607 C 2867 7609 2850 7579 2834 7540 z" stroke-linecap="round"></path>
</g>
<g transform="matrix(0.13 0 0 -0.13 421.13 511.12)">
<path style="stroke: none; stroke-width: 1; stroke-dasharray: none; stroke-linecap: butt; stroke-dashoffset: 0; stroke-linejoin: miter; stroke-miterlimit: 4; fill: rgb(255,204,0); fill-rule: nonzero; opacity: 1;" vector-effect="non-scaling-stroke" transform=" translate(-4158.72, -6515.93)" d="M 4325 7569 C 3971 7522 3667 7262 3551 6908 L 3528 6840 L 3427 6840 C 3371 6840 3320 6836 3315 6832 C 3304 6824 3230 6658 3230 6641 C 3230 6620 3267 6613 3355 6616 C 3496 6621 3490 6626 3490 6504 C 3490 6404 3489 6401 3468 6402 C 3455 6403 3416 6403 3380 6402 L 3314 6400 L 3277 6325 C 3229 6227 3228 6203 3275 6194 C 3295 6191 3358 6190 3416 6192 C 3484 6195 3523 6193 3529 6186 C 3533 6180 3549 6139 3564 6095 C 3649 5852 3815 5663 4045 5550 C 4189 5478 4284 5456 4445 5457 C 4597 5457 4719 5484 4836 5543 C 4952 5601 5080 5707 5080 5743 C 5080 5769 4960 5950 4943 5950 C 4936 5950 4906 5928 4876 5901 C 4683 5726 4390 5677 4175 5784 C 4041 5851 3947 5948 3875 6095 L 3830 6185 L 4183 6190 C 4376 6193 4541 6199 4548 6204 C 4565 6215 4640 6368 4640 6392 C 4640 6404 4629 6411 4605 6416 C 4585 6419 4396 6421 4185 6418 L 3800 6414 L 3794 6445 C 3791 6461 3790 6507 3792 6545 L 3795 6615 L 4241 6611 L 4687 6607 L 4729 6690 C 4774 6780 4778 6801 4754 6824 C 4740 6839 4687 6840 4292 6840 C 3923 6839 3844 6841 3842 6853 C 3837 6877 3918 7023 3970 7085 C 4039 7166 4090 7206 4185 7250 C 4283 7297 4345 7310 4458 7310 C 4634 7310 4728 7271 4927 7117 C 4940 7106 4957 7100 4965 7103 C 4984 7111 5078 7239 5086 7268 C 5091 7287 5084 7301 5049 7337 C 4950 7438 4799 7523 4664 7554 C 4572 7574 4415 7581 4325 7569 z" stroke-linecap="round"></path>
</g>
<g transform="matrix(0.13 0 0 -0.13 775.97 453.33)">
<path style="stroke: none; stroke-width: 1; stroke-dasharray: none; stroke-linecap: butt; stroke-dashoffset: 0; stroke-linejoin: miter; stroke-miterlimit: 4; fill: rgb(255,204,0); fill-rule: nonzero; opacity: 1;" vector-effect="non-scaling-stroke" transform=" translate(-6820, -6949.35)" d="M 6785 7218 C 6774 7212 6762 7202 6758 7196 C 6754 7190 6750 7078 6750 6948 C 6750 6723 6751 6709 6770 6690 C 6798 6662 6854 6663 6874 6692 C 6887 6711 6890 6752 6890 6942 C 6890 7181 6885 7214 6846 7224 C 6817 7232 6808 7231 6785 7218 z" stroke-linecap="round"></path>
</g>
<g transform="matrix(0.13 0 0 -0.13 841.38 470.4)">
<path style="stroke: none; stroke-width: 1; stroke-dasharray: none; stroke-linecap: butt; stroke-dashoffset: 0; stroke-linejoin: miter; stroke-miterlimit: 4; fill: rgb(255,204,0); fill-rule: nonzero; opacity: 1;" vector-effect="non-scaling-stroke" transform=" translate(-7310.56, -6821.38)" d="M 7398 7070 C 7382 7060 7139 6700 7119 6656 C 7105 6625 7124 6582 7157 6569 C 7211 6549 7233 6570 7364 6769 C 7521 7007 7515 6995 7499 7031 C 7481 7076 7437 7092 7398 7070 z" stroke-linecap="round"></path>
</g>
<g transform="matrix(0.13 0 0 -0.13 219.3 501)">
<path style="stroke: none; stroke-width: 1; stroke-dasharray: none; stroke-linecap: butt; stroke-dashoffset: 0; stroke-linejoin: miter; stroke-miterlimit: 4; fill: rgb(255,204,0); fill-rule: nonzero; opacity: 1;" vector-effect="non-scaling-stroke" transform=" translate(-2645, -6591.82)" d="M 2616 6748 C 2584 6654 2579 6650 2500 6650 C 2461 6650 2430 6646 2430 6641 C 2430 6636 2451 6614 2478 6594 C 2504 6573 2529 6553 2534 6548 C 2539 6544 2536 6510 2525 6465 C 2516 6423 2510 6387 2513 6384 C 2516 6381 2546 6397 2579 6419 C 2612 6442 2641 6460 2644 6460 C 2647 6460 2677 6442 2711 6420 C 2745 6398 2775 6382 2777 6384 C 2779 6385 2774 6416 2765 6451 C 2757 6486 2750 6522 2750 6531 C 2750 6540 2775 6566 2805 6589 C 2835 6612 2860 6635 2860 6640 C 2860 6646 2829 6650 2791 6650 C 2708 6650 2700 6656 2675 6739 C 2665 6772 2652 6800 2646 6800 C 2640 6800 2626 6776 2616 6748 z" stroke-linecap="round"></path>
</g>
<g transform="matrix(0.13 0 0 -0.13 657.18 501.43)">
<path style="stroke: none; stroke-width: 1; stroke-dasharray: none; stroke-linecap: butt; stroke-dashoffset: 0; stroke-linejoin: miter; stroke-miterlimit: 4; fill: rgb(255,204,0); fill-rule: nonzero; opacity: 1;" vector-effect="non-scaling-stroke" transform=" translate(-5929.04, -6588.66)" d="M 5913 6788 C 5908 6781 5895 6753 5885 6725 C 5859 6652 5856 6650 5779 6650 C 5741 6650 5710 6647 5710 6643 C 5710 6638 5735 6612 5766 6585 L 5822 6534 L 5806 6473 C 5781 6377 5782 6374 5833 6402 C 5856 6415 5887 6434 5901 6443 C 5926 6460 5928 6459 5989 6419 C 6023 6396 6053 6380 6056 6382 C 6061 6388 6044 6498 6034 6525 C 6031 6532 6053 6557 6087 6585 C 6119 6611 6147 6636 6148 6641 C 6150 6646 6115 6650 6071 6650 C 5981 6650 5979 6651 5950 6745 C 5935 6794 5926 6805 5913 6788 z" stroke-linecap="round"></path>
</g>
<g transform="matrix(0.13 0 0 -0.13 877.98 528.03)">
<path style="stroke: none; stroke-width: 1; stroke-dasharray: none; stroke-linecap: butt; stroke-dashoffset: 0; stroke-linejoin: miter; stroke-miterlimit: 4; fill: rgb(255,204,0); fill-rule: nonzero; opacity: 1;" vector-effect="non-scaling-stroke" transform=" translate(-7585.04, -6389.11)" d="M 7546 6456 C 7441 6416 7351 6375 7344 6365 C 7336 6355 7330 6336 7330 6325 C 7330 6300 7372 6250 7393 6250 C 7415 6250 7789 6387 7816 6405 C 7845 6423 7848 6474 7824 6508 C 7799 6544 7751 6535 7546 6456 z" stroke-linecap="round"></path>
</g>
<g transform="matrix(0.13 0 0 -0.13 811.34 698.52)">
<path style="stroke: none; stroke-width: 1; stroke-dasharray: none; stroke-linecap: butt; stroke-dashoffset: 0; stroke-linejoin: miter; stroke-miterlimit: 4; fill: rgb(255,204,0); fill-rule: nonzero; opacity: 1;" vector-effect="non-scaling-stroke" transform=" translate(-7085.28, -5110.46)" d="M 6195 6305 C 6163 6274 6163 6255 6195 6020 C 6236 5716 6297 5253 6335 4955 C 6394 4490 6430 4237 6442 4207 C 6457 4169 6487 4150 6534 4150 C 6570 4150 6580 4156 6640 4218 C 6676 4255 6763 4349 6834 4428 L 6963 4571 L 6989 4533 C 7003 4512 7093 4380 7188 4240 C 7283 4100 7376 3966 7395 3943 C 7437 3893 7482 3880 7530 3903 C 7585 3931 7854 4124 7903 4171 C 7974 4239 7971 4254 7851 4430 C 7797 4510 7698 4656 7631 4755 C 7564 4853 7508 4938 7507 4942 C 7506 4947 7602 4988 7720 5033 C 7838 5079 7945 5122 7958 5129 C 8004 5154 8014 5238 7977 5281 C 7965 5296 7883 5352 7795 5406 C 7707 5460 7541 5562 7425 5634 C 7310 5705 7148 5805 7065 5855 C 6983 5906 6796 6020 6650 6110 C 6504 6200 6363 6286 6335 6301 C 6272 6337 6227 6338 6195 6305 z M 6838 5801 C 7095 5642 7408 5450 7534 5373 C 7661 5296 7765 5229 7767 5224 C 7770 5215 7753 5208 7485 5109 C 7397 5077 7319 5043 7313 5033 C 7276 4983 7290 4959 7676 4393 C 7774 4250 7778 4274 7636 4176 C 7567 4129 7507 4090 7502 4090 C 7497 4090 7419 4199 7330 4333 C 7020 4794 7031 4780 6966 4780 C 6926 4780 6925 4780 6725 4563 C 6649 4479 6585 4412 6583 4414 C 6582 4415 6551 4639 6515 4911 C 6479 5183 6429 5554 6405 5737 C 6357 6090 6357 6090 6365 6090 C 6368 6090 6581 5960 6838 5801 z" stroke-linecap="round"></path>
</g>
<g transform="matrix(0.13 0 0 -0.13 248.64 611.8)">
<path style="stroke: none; stroke-width: 1; stroke-dasharray: none; stroke-linecap: butt; stroke-dashoffset: 0; stroke-linejoin: miter; stroke-miterlimit: 4; fill: rgb(255,204,0); fill-rule: nonzero; opacity: 1;" vector-effect="non-scaling-stroke" transform=" translate(-2865, -5760.87)" d="M 2857 5963 C 2855 5958 2845 5930 2835 5900 C 2825 5870 2813 5839 2807 5833 C 2801 5825 2771 5820 2724 5820 C 2683 5820 2650 5816 2650 5811 C 2650 5806 2675 5783 2705 5760 C 2736 5736 2760 5710 2760 5700 C 2760 5690 2753 5654 2744 5620 C 2736 5586 2730 5556 2733 5554 C 2736 5551 2766 5567 2801 5590 C 2862 5629 2864 5630 2889 5613 C 2903 5604 2934 5585 2958 5572 C 3008 5544 3009 5549 2985 5640 C 2977 5670 2970 5700 2970 5705 C 2970 5711 2995 5735 3025 5758 C 3055 5782 3080 5805 3080 5811 C 3080 5816 3045 5820 3001 5820 L 2923 5820 L 2900 5890 C 2878 5958 2866 5979 2857 5963 z" stroke-linecap="round"></path>
</g>
<g transform="matrix(0.13 0 0 -0.13 627.3 611.74)">
<path style="stroke: none; stroke-width: 1; stroke-dasharray: none; stroke-linecap: butt; stroke-dashoffset: 0; stroke-linejoin: miter; stroke-miterlimit: 4; fill: rgb(255,204,0); fill-rule: nonzero; opacity: 1;" vector-effect="non-scaling-stroke" transform=" translate(-5705, -5761.32)" d="M 5695 5958 C 5693 5951 5683 5923 5674 5895 C 5650 5822 5647 5820 5564 5820 C 5523 5820 5490 5817 5490 5813 C 5490 5808 5515 5785 5545 5760 C 5606 5710 5608 5703 5584 5618 C 5575 5586 5570 5557 5573 5553 C 5577 5550 5608 5566 5642 5588 L 5705 5629 L 5750 5603 C 5775 5588 5803 5572 5812 5566 C 5839 5550 5842 5563 5825 5634 C 5817 5671 5810 5705 5810 5710 C 5810 5715 5835 5738 5865 5761 C 5895 5784 5920 5806 5920 5811 C 5920 5815 5885 5820 5843 5822 L 5766 5825 L 5742 5898 C 5718 5967 5704 5985 5695 5958 z" stroke-linecap="round"></path>
</g>
<g transform="matrix(0.13 0 0 -0.13 326.27 692.67)">
<path style="stroke: none; stroke-width: 1; stroke-dasharray: none; stroke-linecap: butt; stroke-dashoffset: 0; stroke-linejoin: miter; stroke-miterlimit: 4; fill: rgb(255,204,0); fill-rule: nonzero; opacity: 1;" vector-effect="non-scaling-stroke" transform=" translate(-3447.23, -5154.33)" d="M 3437 5332 C 3428 5312 3414 5278 3406 5258 L 3391 5220 L 3311 5220 C 3266 5220 3230 5216 3230 5211 C 3230 5205 3257 5180 3290 5155 C 3323 5130 3350 5106 3350 5102 C 3350 5098 3341 5063 3331 5023 C 3321 4983 3314 4949 3317 4946 C 3320 4944 3349 4959 3382 4981 C 3416 5002 3448 5020 3455 5020 C 3461 5020 3490 5004 3520 4985 C 3550 4966 3580 4950 3586 4950 C 3593 4950 3590 4977 3578 5027 L 3558 5104 L 3615 5155 C 3646 5182 3668 5208 3664 5213 C 3660 5217 3626 5220 3589 5220 L 3521 5220 L 3501 5275 C 3489 5306 3480 5335 3480 5339 C 3480 5344 3474 5353 3467 5359 C 3456 5368 3450 5362 3437 5332 z" stroke-linecap="round"></path>
</g>
<g transform="matrix(0.13 0 0 -0.13 549.34 692.12)">
<path style="stroke: none; stroke-width: 1; stroke-dasharray: none; stroke-linecap: butt; stroke-dashoffset: 0; stroke-linejoin: miter; stroke-miterlimit: 4; fill: rgb(255,204,0); fill-rule: nonzero; opacity: 1;" vector-effect="non-scaling-stroke" transform=" translate(-5120.27, -5158.44)" d="M 5087 5339 C 5079 5320 5067 5287 5059 5265 L 5044 5225 L 4975 5222 C 4936 5220 4901 5215 4896 5210 C 4892 5206 4915 5181 4949 5154 C 4989 5123 5009 5101 5006 5091 C 4991 5038 4978 4959 4983 4954 C 4986 4951 5012 4964 5042 4982 C 5071 5001 5100 5019 5106 5023 C 5113 5027 5146 5011 5179 4989 C 5213 4966 5243 4950 5246 4953 C 5249 4956 5245 4991 5236 5032 L 5221 5105 L 5283 5162 L 5345 5219 L 5256 5222 L 5168 5225 L 5145 5289 C 5114 5373 5104 5382 5087 5339 z" stroke-linecap="round"></path>
</g>
<g transform="matrix(0.13 0 0 -0.13 437.3 725.86)">
<path style="stroke: none; stroke-width: 1; stroke-dasharray: none; stroke-linecap: butt; stroke-dashoffset: 0; stroke-linejoin: miter; stroke-miterlimit: 4; fill: rgb(255,204,0); fill-rule: nonzero; opacity: 1;" vector-effect="non-scaling-stroke" transform=" translate(-4280, -4905.42)" d="M 4250 5073 C 4243 5046 4231 5013 4223 4998 C 4210 4971 4206 4970 4135 4970 C 4091 4970 4060 4966 4060 4960 C 4060 4954 4085 4931 4115 4907 C 4176 4861 4176 4858 4155 4760 C 4148 4724 4143 4693 4145 4691 C 4148 4689 4178 4706 4213 4729 C 4248 4751 4281 4770 4286 4770 C 4291 4770 4317 4754 4344 4735 C 4425 4678 4428 4683 4394 4804 C 4386 4831 4380 4854 4380 4855 C 4380 4856 4407 4879 4440 4905 C 4473 4931 4500 4957 4500 4961 C 4500 4966 4463 4970 4418 4972 L 4337 4975 L 4312 5048 C 4299 5087 4283 5120 4275 5120 C 4268 5120 4257 5099 4250 5073 z" stroke-linecap="round"></path>
</g>
</svg></svg></g></g></svg></g><g id="dark-icon"><svg xmlns="http://www.w3.org/2000/svg" version="1.1" xmlns:xlink="http://www.w3.org/1999/xlink" xmlns:svgjs="http://svgjs.dev/svgjs" width="1000" height="1000"><g><g transform="matrix(0.9259259259259259,0,0,0.9259259259259259,0,0)" style="filter: invert(100%)"><svg xmlns="http://www.w3.org/2000/svg" version="1.1" xmlns:xlink="http://www.w3.org/1999/xlink" xmlns:svgjs="http://svgjs.dev/svgjs" width="1080" height="1080"><svg xmlns="http://www.w3.org/2000/svg" xmlns:xlink="http://www.w3.org/1999/xlink" version="1.1" width="1080" height="1080" viewBox="0 0 1080 1080" xml:space="preserve">
<desc>Created with Fabric.js 5.2.4</desc>
<defs>
</defs>
<rect x="0" y="0" width="100%" height="100%" fill="transparent"></rect>
<g transform="matrix(1 0 0 1 540 540)" id="0d9e1015-e84a-4c22-bf44-b4e58adb67a0">
<rect style="stroke: none; stroke-width: 1; stroke-dasharray: none; stroke-linecap: butt; stroke-dashoffset: 0; stroke-linejoin: miter; stroke-miterlimit: 4; fill: rgb(0,51,153); fill-rule: nonzero; opacity: 1; visibility: hidden;" vector-effect="non-scaling-stroke" x="-540" y="-540" rx="0" ry="0" width="1080" height="1080"></rect>
</g>
<g transform="matrix(1 0 0 1 540 540)" id="68e26ec7-20f0-42e8-ae5e-a501e5e39986">
</g>
<g transform="matrix(NaN NaN NaN NaN 0 0)">
<g style="">
</g>
</g>
<g transform="matrix(NaN NaN NaN NaN 0 0)">
<g style="">
</g>
</g>
<g transform="matrix(NaN NaN NaN NaN 0 0)">
<g style="">
</g>
</g>
<g transform="matrix(NaN NaN NaN NaN 0 0)">
<g style="">
</g>
</g>
<g transform="matrix(0.13 0 0 -0.13 438.72 510.71)">
<path style="stroke: none; stroke-width: 1; stroke-dasharray: none; stroke-linecap: butt; stroke-dashoffset: 0; stroke-linejoin: miter; stroke-miterlimit: 4; fill: rgb(255,204,0); fill-rule: nonzero; opacity: 1;" vector-effect="non-scaling-stroke" transform=" translate(-4290.6, -6519.01)" d="M 4000 8695 C 3589 8637 3185 8458 2869 8192 C 2447 7837 2182 7350 2109 6796 C 2093 6672 2102 6273 2124 6155 C 2210 5688 2394 5324 2709 4997 C 3068 4625 3547 4395 4075 4339 C 4226 4323 4503 4333 4650 4360 C 5247 4469 5742 4785 6072 5271 C 6175 5421 6171 5411 6154 5526 C 6146 5580 6135 5641 6130 5660 C 6124 5679 6120 5708 6120 5725 C 6120 5763 6106 5748 6086 5688 C 6049 5576 5919 5349 5832 5245 C 5707 5094 5540 4941 5395 4845 C 5011 4590 4494 4467 4043 4525 C 3354 4614 2774 5027 2475 5645 C 2269 6070 2222 6580 2345 7053 C 2506 7672 2988 8192 3608 8416 C 4030 8569 4550 8568 4982 8414 C 5379 8272 5756 7969 5985 7607 C 6159 7332 6252 7057 6291 6705 C 6297 6645 6309 6581 6317 6564 C 6342 6508 6414 6493 6455 6535 C 6486 6565 6488 6623 6464 6792 C 6380 7407 6085 7914 5601 8278 C 5319 8491 5008 8624 4645 8686 C 4515 8709 4137 8714 4000 8695 z" stroke-linecap="round"></path>
</g>
<g transform="matrix(0.13 0 0 -0.13 437.3 293.19)">
<path style="stroke: none; stroke-width: 1; stroke-dasharray: none; stroke-linecap: butt; stroke-dashoffset: 0; stroke-linejoin: miter; stroke-miterlimit: 4; fill: rgb(255,204,0); fill-rule: nonzero; opacity: 1;" vector-effect="non-scaling-stroke" transform=" translate(-4280, -8150.42)" d="M 4264 8344 C 4261 8333 4249 8300 4237 8270 L 4215 8215 L 4137 8212 C 4095 8210 4060 8206 4060 8201 C 4060 8197 4086 8173 4119 8148 L 4178 8102 L 4159 8024 C 4149 7981 4142 7944 4145 7942 C 4147 7940 4178 7956 4214 7979 C 4250 8001 4282 8020 4284 8020 C 4287 8020 4318 8002 4352 7979 C 4386 7957 4416 7943 4418 7949 C 4420 7954 4414 7985 4406 8018 C 4397 8051 4390 8085 4390 8093 C 4390 8101 4415 8127 4445 8150 C 4475 8173 4500 8196 4500 8201 C 4500 8205 4465 8210 4423 8212 L 4346 8215 L 4319 8284 C 4293 8355 4273 8377 4264 8344 z" stroke-linecap="round"></path>
</g>
<g transform="matrix(0.13 0 0 -0.13 328.21 320.18)">
<path style="stroke: none; stroke-width: 1; stroke-dasharray: none; stroke-linecap: butt; stroke-dashoffset: 0; stroke-linejoin: miter; stroke-miterlimit: 4; fill: rgb(255,204,0); fill-rule: nonzero; opacity: 1;" vector-effect="non-scaling-stroke" transform=" translate(-3461.83, -7948)" d="M 3452 8139 C 3447 8126 3435 8091 3425 8063 L 3406 8010 L 3323 8010 C 3274 8010 3240 8006 3240 8000 C 3240 7994 3267 7969 3300 7943 C 3333 7918 3360 7893 3360 7888 C 3360 7883 3353 7850 3344 7814 C 3335 7778 3330 7747 3334 7743 C 3337 7740 3366 7753 3399 7773 C 3431 7794 3461 7810 3464 7810 C 3467 7810 3494 7794 3524 7775 C 3606 7722 3610 7725 3585 7820 C 3577 7850 3570 7880 3570 7886 C 3570 7892 3597 7919 3631 7945 C 3664 7971 3688 7996 3683 8001 C 3679 8005 3641 8010 3600 8012 L 3526 8015 L 3503 8080 C 3475 8159 3464 8171 3452 8139 z" stroke-linecap="round"></path>
</g>
<g transform="matrix(0.13 0 0 -0.13 547.3 319.8)">
<path style="stroke: none; stroke-width: 1; stroke-dasharray: none; stroke-linecap: butt; stroke-dashoffset: 0; stroke-linejoin: miter; stroke-miterlimit: 4; fill: rgb(255,204,0); fill-rule: nonzero; opacity: 1;" vector-effect="non-scaling-stroke" transform=" translate(-5105, -7950.84)" d="M 5083 8143 C 5079 8133 5067 8100 5055 8070 L 5034 8015 L 4957 8012 C 4915 8010 4880 8006 4880 8002 C 4880 7995 4958 7931 4994 7908 C 5001 7903 4998 7878 4985 7826 C 4975 7784 4969 7747 4973 7744 C 4976 7741 5006 7757 5039 7779 L 5099 7820 L 5166 7780 C 5202 7757 5235 7741 5238 7745 C 5241 7748 5236 7782 5226 7820 C 5205 7900 5204 7898 5281 7957 C 5308 7977 5330 7998 5330 8002 C 5330 8006 5294 8010 5251 8010 C 5202 8010 5168 8014 5164 8021 C 5160 8028 5147 8060 5135 8093 C 5112 8157 5095 8174 5083 8143 z" stroke-linecap="round"></path>
</g>
<g transform="matrix(0.13 0 0 -0.13 626.22 392.71)">
<path style="stroke: none; stroke-width: 1; stroke-dasharray: none; stroke-linecap: butt; stroke-dashoffset: 0; stroke-linejoin: miter; stroke-miterlimit: 4; fill: rgb(255,204,0); fill-rule: nonzero; opacity: 1;" vector-effect="non-scaling-stroke" transform=" translate(-5696.88, -7404.05)" d="M 5691 7599 C 5685 7586 5672 7553 5661 7525 L 5642 7475 L 5567 7470 C 5525 7467 5488 7461 5484 7458 C 5481 7454 5506 7430 5539 7404 C 5573 7378 5600 7354 5600 7351 C 5599 7348 5593 7318 5585 7285 C 5561 7185 5565 7180 5641 7235 C 5668 7254 5693 7270 5696 7270 C 5699 7270 5731 7252 5767 7230 C 5804 7208 5835 7191 5836 7193 C 5838 7195 5831 7232 5821 7275 L 5802 7354 L 5848 7397 C 5874 7420 5898 7440 5903 7440 C 5907 7440 5910 7447 5910 7455 C 5910 7466 5893 7470 5839 7472 L 5768 7475 L 5743 7540 C 5713 7620 5704 7630 5691 7599 z" stroke-linecap="round"></path>
</g>
<g transform="matrix(0.13 0 0 -0.13 250.02 393.18)">
<path style="stroke: none; stroke-width: 1; stroke-dasharray: none; stroke-linecap: butt; stroke-dashoffset: 0; stroke-linejoin: miter; stroke-miterlimit: 4; fill: rgb(255,204,0); fill-rule: nonzero; opacity: 1;" vector-effect="non-scaling-stroke" transform=" translate(-2875.4, -7400.46)" d="M 2834 7540 L 2807 7470 L 2746 7469 C 2646 7468 2640 7461 2697 7415 C 2769 7357 2769 7359 2753 7285 C 2746 7249 2739 7216 2737 7212 C 2731 7194 2757 7201 2812 7234 L 2872 7269 L 2938 7230 C 2974 7208 3005 7192 3007 7194 C 3009 7195 3003 7232 2994 7276 L 2978 7355 L 3034 7405 C 3065 7433 3090 7459 3090 7462 C 3090 7466 3053 7470 3008 7472 L 2927 7475 L 2905 7539 C 2893 7575 2879 7605 2873 7607 C 2867 7609 2850 7579 2834 7540 z" stroke-linecap="round"></path>
</g>
<g transform="matrix(0.13 0 0 -0.13 421.13 511.12)">
<path style="stroke: none; stroke-width: 1; stroke-dasharray: none; stroke-linecap: butt; stroke-dashoffset: 0; stroke-linejoin: miter; stroke-miterlimit: 4; fill: rgb(255,204,0); fill-rule: nonzero; opacity: 1;" vector-effect="non-scaling-stroke" transform=" translate(-4158.72, -6515.93)" d="M 4325 7569 C 3971 7522 3667 7262 3551 6908 L 3528 6840 L 3427 6840 C 3371 6840 3320 6836 3315 6832 C 3304 6824 3230 6658 3230 6641 C 3230 6620 3267 6613 3355 6616 C 3496 6621 3490 6626 3490 6504 C 3490 6404 3489 6401 3468 6402 C 3455 6403 3416 6403 3380 6402 L 3314 6400 L 3277 6325 C 3229 6227 3228 6203 3275 6194 C 3295 6191 3358 6190 3416 6192 C 3484 6195 3523 6193 3529 6186 C 3533 6180 3549 6139 3564 6095 C 3649 5852 3815 5663 4045 5550 C 4189 5478 4284 5456 4445 5457 C 4597 5457 4719 5484 4836 5543 C 4952 5601 5080 5707 5080 5743 C 5080 5769 4960 5950 4943 5950 C 4936 5950 4906 5928 4876 5901 C 4683 5726 4390 5677 4175 5784 C 4041 5851 3947 5948 3875 6095 L 3830 6185 L 4183 6190 C 4376 6193 4541 6199 4548 6204 C 4565 6215 4640 6368 4640 6392 C 4640 6404 4629 6411 4605 6416 C 4585 6419 4396 6421 4185 6418 L 3800 6414 L 3794 6445 C 3791 6461 3790 6507 3792 6545 L 3795 6615 L 4241 6611 L 4687 6607 L 4729 6690 C 4774 6780 4778 6801 4754 6824 C 4740 6839 4687 6840 4292 6840 C 3923 6839 3844 6841 3842 6853 C 3837 6877 3918 7023 3970 7085 C 4039 7166 4090 7206 4185 7250 C 4283 7297 4345 7310 4458 7310 C 4634 7310 4728 7271 4927 7117 C 4940 7106 4957 7100 4965 7103 C 4984 7111 5078 7239 5086 7268 C 5091 7287 5084 7301 5049 7337 C 4950 7438 4799 7523 4664 7554 C 4572 7574 4415 7581 4325 7569 z" stroke-linecap="round"></path>
</g>
<g transform="matrix(0.13 0 0 -0.13 775.97 453.33)">
<path style="stroke: none; stroke-width: 1; stroke-dasharray: none; stroke-linecap: butt; stroke-dashoffset: 0; stroke-linejoin: miter; stroke-miterlimit: 4; fill: rgb(255,204,0); fill-rule: nonzero; opacity: 1;" vector-effect="non-scaling-stroke" transform=" translate(-6820, -6949.35)" d="M 6785 7218 C 6774 7212 6762 7202 6758 7196 C 6754 7190 6750 7078 6750 6948 C 6750 6723 6751 6709 6770 6690 C 6798 6662 6854 6663 6874 6692 C 6887 6711 6890 6752 6890 6942 C 6890 7181 6885 7214 6846 7224 C 6817 7232 6808 7231 6785 7218 z" stroke-linecap="round"></path>
</g>
<g transform="matrix(0.13 0 0 -0.13 841.38 470.4)">
<path style="stroke: none; stroke-width: 1; stroke-dasharray: none; stroke-linecap: butt; stroke-dashoffset: 0; stroke-linejoin: miter; stroke-miterlimit: 4; fill: rgb(255,204,0); fill-rule: nonzero; opacity: 1;" vector-effect="non-scaling-stroke" transform=" translate(-7310.56, -6821.38)" d="M 7398 7070 C 7382 7060 7139 6700 7119 6656 C 7105 6625 7124 6582 7157 6569 C 7211 6549 7233 6570 7364 6769 C 7521 7007 7515 6995 7499 7031 C 7481 7076 7437 7092 7398 7070 z" stroke-linecap="round"></path>
</g>
<g transform="matrix(0.13 0 0 -0.13 219.3 501)">
<path style="stroke: none; stroke-width: 1; stroke-dasharray: none; stroke-linecap: butt; stroke-dashoffset: 0; stroke-linejoin: miter; stroke-miterlimit: 4; fill: rgb(255,204,0); fill-rule: nonzero; opacity: 1;" vector-effect="non-scaling-stroke" transform=" translate(-2645, -6591.82)" d="M 2616 6748 C 2584 6654 2579 6650 2500 6650 C 2461 6650 2430 6646 2430 6641 C 2430 6636 2451 6614 2478 6594 C 2504 6573 2529 6553 2534 6548 C 2539 6544 2536 6510 2525 6465 C 2516 6423 2510 6387 2513 6384 C 2516 6381 2546 6397 2579 6419 C 2612 6442 2641 6460 2644 6460 C 2647 6460 2677 6442 2711 6420 C 2745 6398 2775 6382 2777 6384 C 2779 6385 2774 6416 2765 6451 C 2757 6486 2750 6522 2750 6531 C 2750 6540 2775 6566 2805 6589 C 2835 6612 2860 6635 2860 6640 C 2860 6646 2829 6650 2791 6650 C 2708 6650 2700 6656 2675 6739 C 2665 6772 2652 6800 2646 6800 C 2640 6800 2626 6776 2616 6748 z" stroke-linecap="round"></path>
</g>
<g transform="matrix(0.13 0 0 -0.13 657.18 501.43)">
<path style="stroke: none; stroke-width: 1; stroke-dasharray: none; stroke-linecap: butt; stroke-dashoffset: 0; stroke-linejoin: miter; stroke-miterlimit: 4; fill: rgb(255,204,0); fill-rule: nonzero; opacity: 1;" vector-effect="non-scaling-stroke" transform=" translate(-5929.04, -6588.66)" d="M 5913 6788 C 5908 6781 5895 6753 5885 6725 C 5859 6652 5856 6650 5779 6650 C 5741 6650 5710 6647 5710 6643 C 5710 6638 5735 6612 5766 6585 L 5822 6534 L 5806 6473 C 5781 6377 5782 6374 5833 6402 C 5856 6415 5887 6434 5901 6443 C 5926 6460 5928 6459 5989 6419 C 6023 6396 6053 6380 6056 6382 C 6061 6388 6044 6498 6034 6525 C 6031 6532 6053 6557 6087 6585 C 6119 6611 6147 6636 6148 6641 C 6150 6646 6115 6650 6071 6650 C 5981 6650 5979 6651 5950 6745 C 5935 6794 5926 6805 5913 6788 z" stroke-linecap="round"></path>
</g>
<g transform="matrix(0.13 0 0 -0.13 877.98 528.03)">
<path style="stroke: none; stroke-width: 1; stroke-dasharray: none; stroke-linecap: butt; stroke-dashoffset: 0; stroke-linejoin: miter; stroke-miterlimit: 4; fill: rgb(255,204,0); fill-rule: nonzero; opacity: 1;" vector-effect="non-scaling-stroke" transform=" translate(-7585.04, -6389.11)" d="M 7546 6456 C 7441 6416 7351 6375 7344 6365 C 7336 6355 7330 6336 7330 6325 C 7330 6300 7372 6250 7393 6250 C 7415 6250 7789 6387 7816 6405 C 7845 6423 7848 6474 7824 6508 C 7799 6544 7751 6535 7546 6456 z" stroke-linecap="round"></path>
</g>
<g transform="matrix(0.13 0 0 -0.13 811.34 698.52)">
<path style="stroke: none; stroke-width: 1; stroke-dasharray: none; stroke-linecap: butt; stroke-dashoffset: 0; stroke-linejoin: miter; stroke-miterlimit: 4; fill: rgb(255,204,0); fill-rule: nonzero; opacity: 1;" vector-effect="non-scaling-stroke" transform=" translate(-7085.28, -5110.46)" d="M 6195 6305 C 6163 6274 6163 6255 6195 6020 C 6236 5716 6297 5253 6335 4955 C 6394 4490 6430 4237 6442 4207 C 6457 4169 6487 4150 6534 4150 C 6570 4150 6580 4156 6640 4218 C 6676 4255 6763 4349 6834 4428 L 6963 4571 L 6989 4533 C 7003 4512 7093 4380 7188 4240 C 7283 4100 7376 3966 7395 3943 C 7437 3893 7482 3880 7530 3903 C 7585 3931 7854 4124 7903 4171 C 7974 4239 7971 4254 7851 4430 C 7797 4510 7698 4656 7631 4755 C 7564 4853 7508 4938 7507 4942 C 7506 4947 7602 4988 7720 5033 C 7838 5079 7945 5122 7958 5129 C 8004 5154 8014 5238 7977 5281 C 7965 5296 7883 5352 7795 5406 C 7707 5460 7541 5562 7425 5634 C 7310 5705 7148 5805 7065 5855 C 6983 5906 6796 6020 6650 6110 C 6504 6200 6363 6286 6335 6301 C 6272 6337 6227 6338 6195 6305 z M 6838 5801 C 7095 5642 7408 5450 7534 5373 C 7661 5296 7765 5229 7767 5224 C 7770 5215 7753 5208 7485 5109 C 7397 5077 7319 5043 7313 5033 C 7276 4983 7290 4959 7676 4393 C 7774 4250 7778 4274 7636 4176 C 7567 4129 7507 4090 7502 4090 C 7497 4090 7419 4199 7330 4333 C 7020 4794 7031 4780 6966 4780 C 6926 4780 6925 4780 6725 4563 C 6649 4479 6585 4412 6583 4414 C 6582 4415 6551 4639 6515 4911 C 6479 5183 6429 5554 6405 5737 C 6357 6090 6357 6090 6365 6090 C 6368 6090 6581 5960 6838 5801 z" stroke-linecap="round"></path>
</g>
<g transform="matrix(0.13 0 0 -0.13 248.64 611.8)">
<path style="stroke: none; stroke-width: 1; stroke-dasharray: none; stroke-linecap: butt; stroke-dashoffset: 0; stroke-linejoin: miter; stroke-miterlimit: 4; fill: rgb(255,204,0); fill-rule: nonzero; opacity: 1;" vector-effect="non-scaling-stroke" transform=" translate(-2865, -5760.87)" d="M 2857 5963 C 2855 5958 2845 5930 2835 5900 C 2825 5870 2813 5839 2807 5833 C 2801 5825 2771 5820 2724 5820 C 2683 5820 2650 5816 2650 5811 C 2650 5806 2675 5783 2705 5760 C 2736 5736 2760 5710 2760 5700 C 2760 5690 2753 5654 2744 5620 C 2736 5586 2730 5556 2733 5554 C 2736 5551 2766 5567 2801 5590 C 2862 5629 2864 5630 2889 5613 C 2903 5604 2934 5585 2958 5572 C 3008 5544 3009 5549 2985 5640 C 2977 5670 2970 5700 2970 5705 C 2970 5711 2995 5735 3025 5758 C 3055 5782 3080 5805 3080 5811 C 3080 5816 3045 5820 3001 5820 L 2923 5820 L 2900 5890 C 2878 5958 2866 5979 2857 5963 z" stroke-linecap="round"></path>
</g>
<g transform="matrix(0.13 0 0 -0.13 627.3 611.74)">
<path style="stroke: none; stroke-width: 1; stroke-dasharray: none; stroke-linecap: butt; stroke-dashoffset: 0; stroke-linejoin: miter; stroke-miterlimit: 4; fill: rgb(255,204,0); fill-rule: nonzero; opacity: 1;" vector-effect="non-scaling-stroke" transform=" translate(-5705, -5761.32)" d="M 5695 5958 C 5693 5951 5683 5923 5674 5895 C 5650 5822 5647 5820 5564 5820 C 5523 5820 5490 5817 5490 5813 C 5490 5808 5515 5785 5545 5760 C 5606 5710 5608 5703 5584 5618 C 5575 5586 5570 5557 5573 5553 C 5577 5550 5608 5566 5642 5588 L 5705 5629 L 5750 5603 C 5775 5588 5803 5572 5812 5566 C 5839 5550 5842 5563 5825 5634 C 5817 5671 5810 5705 5810 5710 C 5810 5715 5835 5738 5865 5761 C 5895 5784 5920 5806 5920 5811 C 5920 5815 5885 5820 5843 5822 L 5766 5825 L 5742 5898 C 5718 5967 5704 5985 5695 5958 z" stroke-linecap="round"></path>
</g>
<g transform="matrix(0.13 0 0 -0.13 326.27 692.67)">
<path style="stroke: none; stroke-width: 1; stroke-dasharray: none; stroke-linecap: butt; stroke-dashoffset: 0; stroke-linejoin: miter; stroke-miterlimit: 4; fill: rgb(255,204,0); fill-rule: nonzero; opacity: 1;" vector-effect="non-scaling-stroke" transform=" translate(-3447.23, -5154.33)" d="M 3437 5332 C 3428 5312 3414 5278 3406 5258 L 3391 5220 L 3311 5220 C 3266 5220 3230 5216 3230 5211 C 3230 5205 3257 5180 3290 5155 C 3323 5130 3350 5106 3350 5102 C 3350 5098 3341 5063 3331 5023 C 3321 4983 3314 4949 3317 4946 C 3320 4944 3349 4959 3382 4981 C 3416 5002 3448 5020 3455 5020 C 3461 5020 3490 5004 3520 4985 C 3550 4966 3580 4950 3586 4950 C 3593 4950 3590 4977 3578 5027 L 3558 5104 L 3615 5155 C 3646 5182 3668 5208 3664 5213 C 3660 5217 3626 5220 3589 5220 L 3521 5220 L 3501 5275 C 3489 5306 3480 5335 3480 5339 C 3480 5344 3474 5353 3467 5359 C 3456 5368 3450 5362 3437 5332 z" stroke-linecap="round"></path>
</g>
<g transform="matrix(0.13 0 0 -0.13 549.34 692.12)">
<path style="stroke: none; stroke-width: 1; stroke-dasharray: none; stroke-linecap: butt; stroke-dashoffset: 0; stroke-linejoin: miter; stroke-miterlimit: 4; fill: rgb(255,204,0); fill-rule: nonzero; opacity: 1;" vector-effect="non-scaling-stroke" transform=" translate(-5120.27, -5158.44)" d="M 5087 5339 C 5079 5320 5067 5287 5059 5265 L 5044 5225 L 4975 5222 C 4936 5220 4901 5215 4896 5210 C 4892 5206 4915 5181 4949 5154 C 4989 5123 5009 5101 5006 5091 C 4991 5038 4978 4959 4983 4954 C 4986 4951 5012 4964 5042 4982 C 5071 5001 5100 5019 5106 5023 C 5113 5027 5146 5011 5179 4989 C 5213 4966 5243 4950 5246 4953 C 5249 4956 5245 4991 5236 5032 L 5221 5105 L 5283 5162 L 5345 5219 L 5256 5222 L 5168 5225 L 5145 5289 C 5114 5373 5104 5382 5087 5339 z" stroke-linecap="round"></path>
</g>
<g transform="matrix(0.13 0 0 -0.13 437.3 725.86)">
<path style="stroke: none; stroke-width: 1; stroke-dasharray: none; stroke-linecap: butt; stroke-dashoffset: 0; stroke-linejoin: miter; stroke-miterlimit: 4; fill: rgb(255,204,0); fill-rule: nonzero; opacity: 1;" vector-effect="non-scaling-stroke" transform=" translate(-4280, -4905.42)" d="M 4250 5073 C 4243 5046 4231 5013 4223 4998 C 4210 4971 4206 4970 4135 4970 C 4091 4970 4060 4966 4060 4960 C 4060 4954 4085 4931 4115 4907 C 4176 4861 4176 4858 4155 4760 C 4148 4724 4143 4693 4145 4691 C 4148 4689 4178 4706 4213 4729 C 4248 4751 4281 4770 4286 4770 C 4291 4770 4317 4754 4344 4735 C 4425 4678 4428 4683 4394 4804 C 4386 4831 4380 4854 4380 4855 C 4380 4856 4407 4879 4440 4905 C 4473 4931 4500 4957 4500 4961 C 4500 4966 4463 4970 4418 4972 L 4337 4975 L 4312 5048 C 4299 5087 4283 5120 4275 5120 C 4268 5120 4257 5099 4250 5073 z" stroke-linecap="round"></path>
</g>
</svg></svg></g></g></svg></g></svg>