<?xml version="1.0" standalone="no"?>
<!DOCTYPE svg PUBLIC "-//W3C//DTD SVG 20010904//EN"
 "http://www.w3.org/TR/2001/REC-SVG-20010904/DTD/svg10.dtd">
<svg version="1.0" xmlns="http://www.w3.org/2000/svg"
 width="1024.000000pt" height="1024.000000pt" viewBox="0 0 1024.000000 1024.000000"
 preserveAspectRatio="xMidYMid meet">

<g transform="translate(0.000000,1024.000000) scale(0.100000,-0.100000)"
fill="#000000" stroke="none">
<path d="M4000 8695 c-411 -58 -815 -237 -1131 -503 -422 -355 -687 -842 -760
-1396 -16 -124 -7 -523 15 -641 86 -467 270 -831 585 -1158 359 -372 838 -602
1366 -658 151 -16 428 -6 575 21 597 109 1092 425 1422 911 103 150 99 140 82
255 -8 54 -19 115 -24 134 -6 19 -10 48 -10 65 0 38 -14 23 -34 -37 -37 -112
-167 -339 -254 -443 -125 -151 -292 -304 -437 -400 -384 -255 -901 -378 -1352
-320 -689 89 -1269 502 -1568 1120 -206 425 -253 935 -130 1408 161 619 643
1139 1263 1363 422 153 942 152 1374 -2 397 -142 774 -445 1003 -807 174 -275
267 -550 306 -902 6 -60 18 -124 26 -141 25 -56 97 -71 138 -29 31 30 33 88 9
257 -84 615 -379 1122 -863 1486 -282 213 -593 346 -956 408 -130 23 -508 28
-645 9z"/>
<path d="M4264 8344 c-3 -11 -15 -44 -27 -74 l-22 -55 -78 -3 c-42 -2 -77 -6
-77 -11 0 -4 26 -28 59 -53 l59 -46 -19 -78 c-10 -43 -17 -80 -14 -82 2 -2 33
14 69 37 36 22 68 41 70 41 3 0 34 -18 68 -41 34 -22 64 -36 66 -30 2 5 -4 36
-12 69 -9 33 -16 67 -16 75 0 8 25 34 55 57 30 23 55 46 55 51 0 4 -35 9 -77
11 l-77 3 -27 69 c-26 71 -46 93 -55 60z"/>
<path d="M3452 8139 c-5 -13 -17 -48 -27 -76 l-19 -53 -83 0 c-49 0 -83 -4
-83 -10 0 -6 27 -31 60 -57 33 -25 60 -50 60 -55 0 -5 -7 -38 -16 -74 -9 -36
-14 -67 -10 -71 3 -3 32 10 65 30 32 21 62 37 65 37 3 0 30 -16 60 -35 82 -53
86 -50 61 45 -8 30 -15 60 -15 66 0 6 27 33 61 59 33 26 57 51 52 56 -4 4 -42
9 -83 11 l-74 3 -23 65 c-28 79 -39 91 -51 59z"/>
<path d="M5083 8143 c-4 -10 -16 -43 -28 -73 l-21 -55 -77 -3 c-42 -2 -77 -6
-77 -10 0 -7 78 -71 114 -94 7 -5 4 -30 -9 -82 -10 -42 -16 -79 -12 -82 3 -3
33 13 66 35 l60 41 67 -40 c36 -23 69 -39 72 -35 3 3 -2 37 -12 75 -21 80 -22
78 55 137 27 20 49 41 49 45 0 4 -36 8 -79 8 -49 0 -83 4 -87 11 -4 7 -17 39
-29 72 -23 64 -40 81 -52 50z"/>
<path d="M5691 7599 c-6 -13 -19 -46 -30 -74 l-19 -50 -75 -5 c-42 -3 -79 -9
-83 -12 -3 -4 22 -28 55 -54 34 -26 61 -50 61 -53 -1 -3 -7 -33 -15 -66 -24
-100 -20 -105 56 -50 27 19 52 35 55 35 3 0 35 -18 71 -40 37 -22 68 -39 69
-37 2 2 -5 39 -15 82 l-19 79 46 43 c26 23 50 43 55 43 4 0 7 7 7 15 0 11 -17
15 -71 17 l-71 3 -25 65 c-30 80 -39 90 -52 59z"/>
<path d="M2834 7540 l-27 -70 -61 -1 c-100 -1 -106 -8 -49 -54 72 -58 72 -56
56 -130 -7 -36 -14 -69 -16 -73 -6 -18 20 -11 75 22 l60 35 66 -39 c36 -22 67
-38 69 -36 2 1 -4 38 -13 82 l-16 79 56 50 c31 28 56 54 56 57 0 4 -37 8 -82
10 l-81 3 -22 64 c-12 36 -26 66 -32 68 -6 2 -23 -28 -39 -67z"/>
<path d="M4325 7569 c-354 -47 -658 -307 -774 -661 l-23 -68 -101 0 c-56 0
-107 -4 -112 -8 -11 -8 -85 -174 -85 -191 0 -21 37 -28 125 -25 141 5 135 10
135 -112 0 -100 -1 -103 -22 -102 -13 1 -52 1 -88 0 l-66 -2 -37 -75 c-48 -98
-49 -122 -2 -131 20 -3 83 -4 141 -2 68 3 107 1 113 -6 4 -6 20 -47 35 -91 85
-243 251 -432 481 -545 144 -72 239 -94 400 -93 152 0 274 27 391 86 116 58
244 164 244 200 0 26 -120 207 -137 207 -7 0 -37 -22 -67 -49 -193 -175 -486
-224 -701 -117 -134 67 -228 164 -300 311 l-45 90 353 5 c193 3 358 9 365 14
17 11 92 164 92 188 0 12 -11 19 -35 24 -20 3 -209 5 -420 2 l-385 -4 -6 31
c-3 16 -4 62 -2 100 l3 70 446 -4 446 -4 42 83 c45 90 49 111 25 134 -14 15
-67 16 -462 16 -369 -1 -448 1 -450 13 -5 24 76 170 128 232 69 81 120 121
215 165 98 47 160 60 273 60 176 0 270 -39 469 -193 13 -11 30 -17 38 -14 19
8 113 136 121 165 5 19 -2 33 -37 69 -99 101 -250 186 -385 217 -92 20 -249
27 -339 15z"/>
<path d="M6785 7218 c-11 -6 -23 -16 -27 -22 -4 -6 -8 -118 -8 -248 0 -225 1
-239 20 -258 28 -28 84 -27 104 2 13 19 16 60 16 250 0 239 -5 272 -44 282
-29 8 -38 7 -61 -6z"/>
<path d="M7398 7070 c-16 -10 -259 -370 -279 -414 -14 -31 5 -74 38 -87 54
-20 76 1 207 200 157 238 151 226 135 262 -18 45 -62 61 -101 39z"/>
<path d="M2616 6748 c-32 -94 -37 -98 -116 -98 -39 0 -70 -4 -70 -9 0 -5 21
-27 48 -47 26 -21 51 -41 56 -46 5 -4 2 -38 -9 -83 -9 -42 -15 -78 -12 -81 3
-3 33 13 66 35 33 23 62 41 65 41 3 0 33 -18 67 -40 34 -22 64 -38 66 -36 2 1
-3 32 -12 67 -8 35 -15 71 -15 80 0 9 25 35 55 58 30 23 55 46 55 51 0 6 -31
10 -69 10 -83 0 -91 6 -116 89 -10 33 -23 61 -29 61 -6 0 -20 -24 -30 -52z"/>
<path d="M5913 6788 c-5 -7 -18 -35 -28 -63 -26 -73 -29 -75 -106 -75 -38 0
-69 -3 -69 -7 0 -5 25 -31 56 -58 l56 -51 -16 -61 c-25 -96 -24 -99 27 -71 23
13 54 32 68 41 25 17 27 16 88 -24 34 -23 64 -39 67 -37 5 6 -12 116 -22 143
-3 7 19 32 53 60 32 26 60 51 61 56 2 5 -33 9 -77 9 -90 0 -92 1 -121 95 -15
49 -24 60 -37 43z"/>
<path d="M7546 6456 c-105 -40 -195 -81 -202 -91 -8 -10 -14 -29 -14 -40 0
-25 42 -75 63 -75 22 0 396 137 423 155 29 18 32 69 8 103 -25 36 -73 27 -278
-52z"/>
<path d="M6195 6305 c-32 -31 -32 -50 0 -285 41 -304 102 -767 140 -1065 59
-465 95 -718 107 -748 15 -38 45 -57 92 -57 36 0 46 6 106 68 36 37 123 131
194 210 l129 143 26 -38 c14 -21 104 -153 199 -293 95 -140 188 -274 207 -297
42 -50 87 -63 135 -40 55 28 324 221 373 268 71 68 68 83 -52 259 -54 80 -153
226 -220 325 -67 98 -123 183 -124 187 -1 5 95 46 213 91 118 46 225 89 238
96 46 25 56 109 19 152 -12 15 -94 71 -182 125 -88 54 -254 156 -370 228 -115
71 -277 171 -360 221 -82 51 -269 165 -415 255 -146 90 -287 176 -315 191 -63
36 -108 37 -140 4z m643 -504 c257 -159 570 -351 696 -428 127 -77 231 -144
233 -149 3 -9 -14 -16 -282 -115 -88 -32 -166 -66 -172 -76 -37 -50 -23 -74
363 -640 98 -143 102 -119 -40 -217 -69 -47 -129 -86 -134 -86 -5 0 -83 109
-172 243 -310 461 -299 447 -364 447 -40 0 -41 0 -241 -217 -76 -84 -140 -151
-142 -149 -1 1 -32 225 -68 497 -36 272 -86 643 -110 826 -48 353 -48 353 -40
353 3 0 216 -130 473 -289z"/>
<path d="M2857 5963 c-2 -5 -12 -33 -22 -63 -10 -30 -22 -61 -28 -67 -6 -8
-36 -13 -83 -13 -41 0 -74 -4 -74 -9 0 -5 25 -28 55 -51 31 -24 55 -50 55 -60
0 -10 -7 -46 -16 -80 -8 -34 -14 -64 -11 -66 3 -3 33 13 68 36 61 39 63 40 88
23 14 -9 45 -28 69 -41 50 -28 51 -23 27 68 -8 30 -15 60 -15 65 0 6 25 30 55
53 30 24 55 47 55 53 0 5 -35 9 -79 9 l-78 0 -23 70 c-22 68 -34 89 -43 73z"/>
<path d="M5695 5958 c-2 -7 -12 -35 -21 -63 -24 -73 -27 -75 -110 -75 -41 0
-74 -3 -74 -7 0 -5 25 -28 55 -53 61 -50 63 -57 39 -142 -9 -32 -14 -61 -11
-65 4 -3 35 13 69 35 l63 41 45 -26 c25 -15 53 -31 62 -37 27 -16 30 -3 13 68
-8 37 -15 71 -15 76 0 5 25 28 55 51 30 23 55 45 55 50 0 4 -35 9 -77 11 l-77
3 -24 73 c-24 69 -38 87 -47 60z"/>
<path d="M3437 5332 c-9 -20 -23 -54 -31 -74 l-15 -38 -80 0 c-45 0 -81 -4
-81 -9 0 -6 27 -31 60 -56 33 -25 60 -49 60 -53 0 -4 -9 -39 -19 -79 -10 -40
-17 -74 -14 -77 3 -2 32 13 65 35 34 21 66 39 73 39 6 0 35 -16 65 -35 30 -19
60 -35 66 -35 7 0 4 27 -8 77 l-20 77 57 51 c31 27 53 53 49 58 -4 4 -38 7
-75 7 l-68 0 -20 55 c-12 31 -21 60 -21 64 0 5 -6 14 -13 20 -11 9 -17 3 -30
-27z"/>
<path d="M5087 5339 c-8 -19 -20 -52 -28 -74 l-15 -40 -69 -3 c-39 -2 -74 -7
-79 -12 -4 -4 19 -29 53 -56 40 -31 60 -53 57 -63 -15 -53 -28 -132 -23 -137
3 -3 29 10 59 28 29 19 58 37 64 41 7 4 40 -12 73 -34 34 -23 64 -39 67 -36 3
3 -1 38 -10 79 l-15 73 62 57 62 57 -89 3 -88 3 -23 64 c-31 84 -41 93 -58 50z"/>
<path d="M4250 5073 c-7 -27 -19 -60 -27 -75 -13 -27 -17 -28 -88 -28 -44 0
-75 -4 -75 -10 0 -6 25 -29 55 -53 61 -46 61 -49 40 -147 -7 -36 -12 -67 -10
-69 3 -2 33 15 68 38 35 22 68 41 73 41 5 0 31 -16 58 -35 81 -57 84 -52 50
69 -8 27 -14 50 -14 51 0 1 27 24 60 50 33 26 60 52 60 56 0 5 -37 9 -82 11
l-81 3 -25 73 c-13 39 -29 72 -37 72 -7 0 -18 -21 -25 -47z"/>
<path d="M6280 3796 c-71 -20 -129 -54 -188 -109 -98 -94 -142 -200 -142 -345
0 -154 46 -268 143 -358 103 -95 204 -130 347 -121 147 10 236 52 332 155 85
93 125 214 115 357 -12 191 -129 349 -305 411 -53 19 -86 23 -162 23 -52 0
-115 -6 -140 -13z m248 -192 c104 -51 157 -154 150 -289 -3 -65 -10 -91 -34
-134 -84 -157 -299 -186 -412 -56 -60 67 -67 90 -67 210 0 94 3 116 22 150 69
128 218 180 341 119z"/>
<path d="M3467 3793 c-4 -3 -7 -210 -7 -459 0 -415 1 -452 17 -458 20 -8 547
-7 581 1 20 5 22 11 22 78 0 40 -3 80 -6 89 -5 14 -33 16 -210 16 l-204 0 0
95 0 95 178 2 177 3 3 83 3 82 -53 2 c-29 1 -105 3 -168 4 -63 1 -121 3 -127
3 -10 1 -13 26 -13 91 l0 90 194 0 c107 0 197 3 199 8 10 16 18 108 12 144
l-7 38 -292 0 c-161 0 -296 -3 -299 -7z"/>
<path d="M4227 3793 c-4 -3 -7 -142 -7 -308 0 -338 6 -383 65 -472 39 -59 80
-93 151 -125 42 -19 66 -22 164 -22 107 0 119 2 181 31 81 38 142 97 178 172
l26 56 0 335 0 335 -95 0 -95 0 -5 -320 c-4 -224 -9 -326 -17 -341 -69 -120
-251 -123 -321 -5 l-27 46 -3 313 -3 312 -93 0 c-51 0 -96 -3 -99 -7z"/>
<path d="M5167 3793 c-4 -3 -7 -210 -7 -459 0 -403 2 -453 16 -458 29 -11 160
-6 172 6 8 8 12 59 12 164 l0 152 48 5 c59 5 62 3 157 -173 41 -74 79 -141 85
-147 14 -16 196 -18 205 -3 6 10 -119 243 -167 312 -21 30 -22 38 -7 38 6 0
33 16 60 35 73 54 104 125 104 235 -1 67 -5 94 -22 126 -54 103 -127 150 -255
164 -95 11 -391 13 -401 3z m441 -217 c33 -31 37 -40 36 -80 -2 -85 -52 -116
-188 -116 l-95 0 -3 115 -3 115 108 0 107 0 38 -34z"/>
<path d="M1355 2567 c-72 -24 -120 -54 -168 -106 -60 -64 -93 -134 -107 -229
-47 -303 213 -551 500 -478 65 17 166 75 176 101 6 14 -20 58 -58 101 l-19 22
-65 -34 c-110 -57 -211 -45 -286 33 -51 53 -70 104 -71 190 0 95 36 172 103
218 41 27 52 30 125 30 73 0 85 -3 132 -33 29 -19 57 -31 61 -28 5 3 26 30 47
61 l38 55 -23 25 c-13 14 -48 37 -78 52 -47 23 -70 27 -161 30 -69 2 -120 -2
-146 -10z"/>
<path d="M3083 2565 c-193 -60 -311 -265 -275 -478 16 -92 50 -161 110 -224
137 -143 366 -163 535 -46 20 14 37 32 37 41 0 17 -70 112 -83 112 -5 0 -29
-12 -54 -27 -34 -20 -63 -27 -117 -31 -64 -3 -77 -1 -126 25 -82 43 -113 98
-118 213 -4 78 -1 94 21 143 62 135 216 167 359 73 26 -17 27 -17 53 11 14 15
35 43 46 61 24 38 19 49 -42 88 -82 51 -248 70 -346 39z"/>
<path d="M6225 2562 c-157 -54 -249 -165 -276 -330 -47 -289 191 -532 473
-484 124 22 216 79 259 164 16 31 19 59 19 173 l0 135 -127 2 c-71 1 -146 3
-168 3 -75 1 -75 1 -75 -81 0 -84 -10 -77 113 -75 l77 1 0 -55 c0 -49 -3 -56
-32 -77 -44 -31 -150 -38 -213 -14 -49 19 -109 80 -132 134 -19 47 -21 135 -4
194 17 59 72 125 125 149 50 23 143 25 191 5 19 -8 50 -27 69 -41 l33 -25 36
39 c55 61 62 79 40 103 -26 29 -92 66 -149 83 -67 20 -196 19 -259 -3z"/>
<path d="M1882 2163 l3 -408 235 2 c129 1 243 2 253 2 16 1 18 10 15 79 l-3
77 -163 5 -163 5 -3 250 c-2 138 -4 283 -5 323 l-1 72 -85 0 -85 0 2 -407z"/>
<path d="M2500 2166 c0 -462 -11 -416 100 -411 l65 2 3 407 2 406 -85 0 -85 0
0 -404z"/>
<path d="M3606 2554 c-3 -9 -6 -188 -6 -398 0 -284 3 -385 12 -394 16 -16 150
-16 166 0 8 8 12 55 12 146 0 118 2 137 20 159 l19 25 64 -99 c35 -54 85 -131
111 -170 l47 -73 77 0 c82 0 122 7 122 21 0 5 -68 106 -150 226 l-150 217 34
35 c57 61 256 302 256 312 0 5 -45 9 -99 9 l-99 0 -69 -82 c-38 -46 -96 -116
-127 -155 -32 -40 -60 -73 -63 -73 -2 0 -1 70 3 155 l7 155 -90 0 c-74 0 -92
-3 -97 -16z"/>
<path d="M4360 2165 c0 -317 3 -405 13 -406 13 -1 487 -1 500 0 8 1 10 122 1
145 -5 14 -30 16 -170 16 l-164 0 0 80 0 80 133 0 c72 0 137 4 143 8 7 4 15
35 19 70 11 94 10 95 -157 86 l-138 -7 0 84 0 84 148 -1 c81 -1 157 2 170 7
21 8 23 13 20 81 l-3 73 -257 3 -258 2 0 -405z"/>
<path d="M5007 2564 c-4 -4 -7 -186 -7 -405 0 -449 -9 -409 90 -409 94 0 90
-7 90 150 l0 137 41 7 c22 4 44 4 49 1 5 -3 39 -63 76 -133 37 -70 74 -135 82
-144 12 -15 32 -18 103 -18 48 0 91 4 94 10 3 5 -33 76 -79 157 -74 127 -83
149 -70 158 108 68 139 121 138 235 -1 116 -45 184 -149 232 -46 21 -66 23
-250 26 -110 2 -204 0 -208 -4z m344 -164 c53 -15 74 -43 74 -101 0 -40 -5
-54 -28 -76 -25 -26 -34 -28 -122 -31 l-95 -4 0 111 0 111 68 0 c37 0 83 -5
103 -10z"/>
<path d="M7011 2528 c-10 -24 -46 -122 -80 -218 -34 -96 -92 -256 -127 -354
-36 -99 -63 -185 -60 -192 3 -8 31 -11 91 -9 47 1 87 4 89 6 2 2 14 38 28 79
l24 74 148 0 148 0 23 -73 c13 -41 30 -78 37 -82 15 -10 148 -12 171 -3 18 7
20 2 -63 229 -34 94 -89 247 -122 340 -33 94 -66 186 -72 205 l-13 35 -102 3
-101 3 -19 -43z m165 -319 c24 -73 44 -134 44 -136 0 -2 -43 -3 -96 -3 -76 0
-95 3 -91 13 3 8 24 71 47 141 23 70 44 125 47 122 3 -3 25 -65 49 -137z"/>
<path d="M7625 2558 c-10 -29 -31 -783 -22 -795 12 -16 120 -17 148 -3 17 10
19 23 20 163 1 84 4 199 8 257 l6 105 100 -190 c83 -158 105 -191 128 -200 52
-18 71 5 176 210 l96 189 6 -134 c4 -74 7 -189 8 -256 1 -155 3 -158 100 -151
40 3 76 8 79 11 8 9 -28 789 -37 799 -4 4 -50 6 -102 5 l-94 -3 -100 -202
c-54 -112 -102 -203 -105 -203 -3 1 -50 92 -105 203 l-100 202 -103 3 c-76 2
-104 -1 -107 -10z"/>
<path d="M8620 2165 c0 -317 3 -405 13 -406 10 -1 438 0 485 1 10 0 12 19 10
78 l-3 77 -167 3 -168 2 0 80 0 80 150 0 151 0 -3 83 -3 82 -145 0 -145 1 0
79 0 80 165 0 165 0 3 83 3 82 -256 0 -255 0 0 -405z"/>
</g>
</svg>
